<svg xmlns="http://www.w3.org/2000/svg" width="128" height="128"><svg xmlns="http://www.w3.org/2000/svg" xmlns:xlink="http://www.w3.org/1999/xlink" width="128" height="122" data-background-color="#ffffff" transform="matrix(.80469 0 0 .80469 12.76 15.159)" viewBox="0 0 95 91"><svg width="95.481" height="91.453" transform="translate(-.24 -.227)" viewBox="0 0 95.481 91.453"><svg width="95.481" height="91.453" viewBox="0 0 95.481 91.453"><svg width="95.481" height="91.453" viewBox="0 0 95.481 91.453"><svg width="95.481" height="91.453" viewBox="0 0 95.481 91.453"><svg width="95.481" height="91.453" viewBox="0 0 95.481 91.453"><svg width="95.481" height="91.453" viewBox="0 0 95.481 91.453"><svg xmlns="http://www.w3.org/2000/svg" xmlns:xlink="http://www.w3.org/1999/xlink" xml:space="preserve" width="95.481" height="91.453" class="icon-icon-0" data-fill-palette-color="accent" viewBox="0.572 1.603 48.855 46.794"><g fill="#2ecc40" data-fill-palette-color="accent"><g data-fill-palette-color="accent"><g data-fill-palette-color="accent"><path d="m42.187 30.881-26.006 8.123M41.73 29.426l-26.004 8.117.911 2.918 26.006-8.123z" data-fill-palette-color="accent"/></g><path d="M18.572 42.535a2.23 2.23 0 0 1-.513 1.664 2.253 2.253 0 0 1-1.539.814 2.277 2.277 0 0 1-1.969-3.723 2.25 2.25 0 0 1 1.542-.813 2.242 2.242 0 0 1 1.666.514c.47.388.756.935.813 1.544m-2.764-5.101a5.322 5.322 0 0 0-3.609 1.91 5.309 5.309 0 0 0-1.201 3.9 5.342 5.342 0 0 0 5.807 4.811 5.279 5.279 0 0 0 3.605-1.908 5.275 5.275 0 0 0 1.204-3.898 5.289 5.289 0 0 0-1.907-3.607 5.301 5.301 0 0 0-3.899-1.208" data-fill-palette-color="accent"/><g data-fill-palette-color="accent"><path d="m13.436 30.992 26.118 8.447M39.081 40.897 12.97 32.449l.94-2.907 26.113 8.448z" data-fill-palette-color="accent"/></g><path d="M32.707 42.547a5.286 5.286 0 0 0 1.186 3.902 5.288 5.288 0 0 0 3.599 1.922 5.337 5.337 0 0 0 5.828-4.781 5.343 5.343 0 0 0-4.786-5.83 5.294 5.294 0 0 0-3.903 1.188 5.282 5.282 0 0 0-1.924 3.599m5.529-1.752a2.287 2.287 0 0 1 2.044 2.494 2.29 2.29 0 0 1-2.491 2.049 2.301 2.301 0 0 1-1.538-.824 2.268 2.268 0 0 1-.505-1.674 2.27 2.27 0 0 1 .822-1.537 2.273 2.273 0 0 1 1.668-.508M11.115 19.867 5.497 2.681 5.155 1.64l-1.097-.01L.6 1.603.572 4.656l3.461.029L2.594 3.63l5.62 17.182z" data-fill-palette-color="accent"/><g data-fill-palette-color="accent"><path d="M17.158 26.744h20.74l2.869-7.362-25.697.092z" data-fill-palette-color="accent"/><path d="M5.756 13.544 12.45 32.75l29.955-.223 7.022-18.983zm34.609 15.282-.379.973H14.86l-.318-1.104-2.963-10.315-.558-1.939 2.021-.008 29.954-.109 2.243-.01-.815 2.088z" data-fill-palette-color="accent"/></g></g><path fill-rule="evenodd" d="M32.577 11.763h3.868L32.577 8.57l-3.866-3.191-3.864 3.191-3.865 3.193h3.81z" clip-rule="evenodd" data-fill-palette-color="accent"/></g></svg></svg></svg></svg></svg></svg></svg></svg></svg>